<?xml version="1.0" encoding="UTF-8" standalone="no"?>
<svg width="86px" height="64px" viewBox="0 0 86 64" version="1.1" xmlns="http://www.w3.org/2000/svg" xmlns:xlink="http://www.w3.org/1999/xlink" xmlns:sketch="http://www.bohemiancoding.com/sketch/ns">
    <!-- Generator: Sketch 3.0.3 (7891) - http://www.bohemiancoding.com/sketch -->
    <title>logo-github</title>
    <desc>Created with Sketch.</desc>
    <defs></defs>
    <g id="Client-Logos" stroke="none" stroke-width="1" fill="none" fill-rule="evenodd" sketch:type="MSPage">
        <g id="gray" sketch:type="MSLayerGroup" transform="translate(0.000000, -354.000000)" fill="#404040">
            <g id="logo-github-2" transform="translate(0.000000, 354.000000)" sketch:type="MSShapeGroup">
                <path d="M16.5379252,30.2852923 L9.32250728,30.2852923 C9.13638254,30.2852923 8.98530146,30.4414769 8.98530146,30.6336615 L8.98530146,34.2763077 C8.98530146,34.4684923 9.13638254,34.6248615 9.32250728,34.6248615 L12.137264,34.6248615 L12.137264,39.1505231 C12.137264,39.1505231 11.5052266,39.3729846 9.7578711,39.3729846 C7.69637422,39.3729846 4.81653638,38.5952 4.81653638,32.0564923 C4.81653638,25.5163077 7.81527235,24.6558154 10.6305655,24.6558154 C13.0675301,24.6558154 14.1174096,25.0988923 14.7853846,25.3123077 C14.995289,25.3787692 15.1894595,25.1629538 15.1894595,24.9705846 L15.9943909,21.4510769 C15.9943909,21.3611692 15.9648898,21.2528 15.8654802,21.1791385 C15.5942495,20.9793846 13.9391518,20.0230769 9.7578711,20.0230769 C4.94097713,20.0230769 0,22.1391385 0,32.3114462 C0,42.4841231 5.65704782,44 10.4240582,44 C14.3711185,44 16.7655301,42.2583385 16.7655301,42.2583385 C16.8642245,42.2020308 16.8749522,42.0596923 16.8749522,41.9943385 L16.8749522,30.6336615 C16.8749522,30.4414769 16.7240499,30.2852923 16.5379252,30.2852923" id="Fill-1"></path>
                <path d="M53.7231809,21.2419077 C53.7231809,21.0480615 53.5744241,20.8916923 53.3882994,20.8916923 L49.3255593,20.8916923 C49.1399709,20.8916923 48.9890686,21.0480615 48.9890686,21.2419077 C48.9890686,21.2428308 48.9901414,29.3489231 48.9901414,29.3489231 L42.6574304,29.3489231 L42.6574304,21.2419077 C42.6574304,21.0480615 42.5079584,20.8916923 42.3221913,20.8916923 L38.2596299,20.8916923 C38.0747568,20.8916923 37.9240333,21.0480615 37.9240333,21.2419077 L37.9240333,43.1932308 C37.9240333,43.3868923 38.0747568,43.5445538 38.2596299,43.5445538 L42.3221913,43.5445538 C42.5079584,43.5445538 42.6574304,43.3868923 42.6574304,43.1932308 L42.6574304,33.8038769 L48.9901414,33.8038769 C48.9901414,33.8038769 48.9790561,43.1924923 48.9790561,43.1932308 C48.9790561,43.3868923 49.1297796,43.5445538 49.3155468,43.5445538 L53.3879418,43.5445538 C53.5740665,43.5445538 53.7228233,43.3868923 53.7231809,43.1932308 L53.7231809,21.2419077" id="Fill-2"></path>
                <path d="M24.2044407,24.1224615 C24.2044407,22.6119385 23.0315509,21.3912615 21.5845696,21.3912615 C20.1390187,21.3912615 18.9652349,22.6119385 18.9652349,24.1224615 C18.9652349,25.6313231 20.1390187,26.8553231 21.5845696,26.8553231 C23.0315509,26.8553231 24.2044407,25.6313231 24.2044407,24.1224615" id="Fill-3"></path>
                <path d="M23.9139002,38.5627077 L23.9139002,28.4299077 C23.9139002,28.2375385 23.7635343,28.0802462 23.5777672,28.0802462 L19.5279002,28.0802462 C19.3421331,28.0802462 19.1758545,28.2781538 19.1758545,28.4705231 L19.1758545,42.9877538 C19.1758545,43.4144 19.4333181,43.5412308 19.7665904,43.5412308 L23.415422,43.5412308 C23.8157422,43.5412308 23.9139002,43.3383385 23.9139002,42.9809231 L23.9139002,38.5627077" id="Fill-4"></path>
                <path d="M69.1633098,28.1132923 L65.1316798,28.1132923 C64.9468067,28.1132923 64.796262,28.2705846 64.796262,28.4642462 L64.796262,39.2276923 C64.796262,39.2276923 63.7721289,40.0014154 62.3183534,40.0014154 C60.8647568,40.0014154 60.4789189,39.3203692 60.4789189,37.8506462 L60.4789189,28.4642462 C60.4789189,28.2705846 60.3287318,28.1132923 60.1436798,28.1132923 L56.0519751,28.1132923 C55.8672807,28.1132923 55.7160208,28.2705846 55.7160208,28.4642462 L55.7160208,38.5614154 C55.7160208,42.9268308 58.0723493,43.9948308 61.3138877,43.9948308 C63.9730936,43.9948308 66.1171933,42.4778462 66.1171933,42.4778462 C66.1171933,42.4778462 66.2192848,43.2772308 66.2654137,43.3721231 C66.3117214,43.4666462 66.4320499,43.5620923 66.5620333,43.5620923 L69.1650977,43.5502769 C69.3497921,43.5502769 69.501052,43.3926154 69.501052,43.1998769 L69.4998004,28.4642462 C69.4998004,28.2705846 69.3490769,28.1132923 69.1633098,28.1132923" id="Fill-5"></path>
                <path d="M78.5920208,39.9881231 C77.1936715,39.9441846 76.2451684,39.2889846 76.2451684,39.2889846 L76.2451684,32.3374769 C76.2451684,32.3374769 77.1809771,31.7452308 78.3290146,31.6392615 C79.7808233,31.5050462 81.1797089,31.9579077 81.1797089,35.5339077 C81.1797089,39.3048615 80.5483867,40.0490462 78.5920208,39.9881231 L78.5920208,39.9881231 Z M80.1822162,27.6201846 C77.8923992,27.6201846 76.3349231,28.6750769 76.3349231,28.6750769 L76.3349231,21.2419077 C76.3349231,21.0480615 76.1849148,20.8916923 75.999684,20.8916923 L71.925501,20.8916923 C71.7402703,20.8916923 71.5897256,21.0480615 71.5897256,21.2419077 L71.5897256,43.1932308 C71.5897256,43.3868923 71.7402703,43.5445538 71.9260374,43.5445538 L74.7527734,43.5445538 C74.8800748,43.5445538 74.9764449,43.4768 75.047605,43.3580923 C75.1178711,43.2401231 75.2192474,42.3460308 75.2192474,42.3460308 C75.2192474,42.3460308 76.8852516,43.9761846 80.0390021,43.9761846 C83.7414719,43.9761846 85.8648316,42.0369846 85.8648316,35.2706462 C85.8648316,28.5043077 82.4736424,27.6201846 80.1822162,27.6201846 L80.1822162,27.6201846 Z" id="Fill-6"></path>
                <path d="M35.5904116,28.0782154 L32.5428649,28.0782154 C32.5428649,28.0782154 32.5382162,23.9219692 32.5382162,23.9210462 C32.5382162,23.7637538 32.4597256,23.6851077 32.2836133,23.6851077 L28.1305821,23.6851077 C27.969131,23.6851077 27.8824158,23.7584 27.8824158,23.9186462 L27.8824158,28.2146462 C27.8824158,28.2146462 25.8012516,28.7334154 25.6605405,28.7753231 C25.5203659,28.8172308 25.4172017,28.9507077 25.4172017,29.1098462 L25.4172017,31.8094769 C25.4172017,32.0036923 25.5673888,32.1602462 25.7531559,32.1602462 L27.8824158,32.1602462 L27.8824158,38.6546462 C27.8824158,43.4784615 31.1593555,43.9523692 33.3706819,43.9523692 C34.3810478,43.9523692 35.5896965,43.6172923 35.7892308,43.5412308 C35.9099168,43.4954462 35.9800042,43.3664 35.9800042,43.2264615 L35.9834012,40.2567385 C35.9834012,40.0630769 35.8249896,39.9063385 35.646553,39.9063385 C35.4690104,39.9063385 35.0146944,39.9809231 34.5469688,39.9809231 C33.050104,39.9809231 32.5428649,39.2622154 32.5428649,38.3319385 C32.5428649,37.4024 32.5426861,32.1602462 32.5426861,32.1602462 L35.5904116,32.1602462 C35.7761788,32.1602462 35.9265447,32.0036923 35.9265447,31.8094769 L35.9265447,28.4280615 C35.9265447,28.2344 35.7761788,28.0782154 35.5904116,28.0782154" id="Fill-7"></path>
            </g>
        </g>
    </g>
</svg>